#!OML:ASF F:\VICON\USERDATA\INSTALL\rory3\rory3.ASF
:FULLY-SPECIFIED
:DEGREES
10
root -0.5724059900839992 16.801314723271126 -26.68228643103441 3.78546925388181 -4.718778013882399 -6.260382856871907
lfemur -19.174398788478012 6.54916180180807 -9.258648298487245
ltibia 104.03298249638439
lfoot 27.941587466811352 -19.300088513249527
ltoes 11.508081244165448
rfemur -29.29339444137746 7.211010166329317 35.660189846650105
rtibia 54.93230214671291
rfoot -21.73288446180961 -14.755486033351168
rtoes 2.2273101648328195
lowerback 18.7087848639755 -0.41979874456512967 3.5928137103545192
upperback 0.22580496735283295 0.6313488549298942 3.921780719494855
thorax -10.303490712194685 0.23074493040568023 2.0849926025544003
lowerneck -18.6705041120453 -2.4134615709360405 -2.1965412049409982
upperneck 12.949595458016647 -2.8373919233812273 0.8695061747073038
head 7.061408368360104 -1.3910608178967256 0.3169052493668663
lclavicle -6.477657589549729e-16 -4.860687341859907e-15
lhumerus -47.04760225860635 -7.934640308188726 96.79140084967685
lradius 95.07371888582976
lwrist 33.01059649060198
lhand -30.322204556941706 1.500715570686955
lfingers 7.125019999999998
lthumb -3.6286545557572394 31.449595425224707
rclavicle -6.477657589549729e-16 -4.860687341859907e-15
rhumerus -44.03770711703271 6.921129755495648 -93.36551409885676
rradius 99.0348128339346
rwrist -9.745759488547279
rhand -21.246187343563154 41.037691947651865
rfingers 7.125019999999998
rthumb 5.13669265849726 11.119992108913216
11
root -0.6128146526312569 16.800614734248832 -25.710686819457802 4.005438056948862 -2.927271769200714 -6.118673399429479
lfemur -26.082995091781985 5.815933653242633 -9.000978683694003
ltibia 106.73398150725662
lfoot 23.595289721183043 -17.756390443732087
ltoes 4.05390819963103
rfemur -25.49599629238034 7.04039048981024 35.853389555786116
rtibia 54.948602141372454
rfoot -25.806881982801112 -15.937683911522644
rtoes 5.749867962447338
lowerback 18.25478672846468 -0.5081779314903 3.2390947396185643
upperback 0.07468890485450741 0.4441188579543218 4.140889016384823
thorax -10.21869144258985 0.16801875793622362 2.5744802213819824
lowerneck -17.836808010932003 -2.631740020965619 -2.3738378223256484
upperneck 12.511797235403682 -3.1200605565220503 0.9598396920697316
head 6.788392088451571 -1.5308693136657205 0.35478264851549274
lclavicle -6.47765697056588e-16 -4.860687390552724e-15
lhumerus -49.42730049629799 -8.060630044356014 97.75629735757865
lradius 95.04721891744651
lwrist 31.38319812178834
lhand -31.081801908941763 -0.3138192817997797
lfingers 7.125019999999998
lthumb -4.362091907821606 29.621301616294563
rclavicle -6.47765697056588e-16 -4.860687390552724e-15
rhumerus -41.67750995916091 8.165316999206853 -93.60801350845979
rradius 101.24001048173375
rwrist -10.425907938135698
rhand -21.048888279919822 41.03219195843302
rfingers 7.125019999999998
rthumb 5.327161721838296 11.119192110483807
12
root -0.6381988124620446 16.86221376821059 -24.705087221473473 4.386135985428321 -1.1258555452921442 -5.447525969025961
lfemur -32.344091741554195 4.67613653128242 -10.1413169789295
ltibia 107.03598139666192
lfoot 17.411592928591205 -15.048993829486113
ltoes -3.165385064068965
rfemur -20.878898542937403 5.983772493071364 35.59728994134649
rtibia 52.93980279952685
rfoot -27.969780666687345 -17.4569811846625
rtoes 12.270593885537032
lowerback 17.586789471810008 -0.4852991419716184 2.706236290149036
upperback -0.3367969362630698 0.33772842790679514 4.034969839685512
thorax -10.296990768180162 0.14315408596955875 2.7876191845414198
lowerneck -16.667813477884806 -3.06586693827982 -2.533984766906313
upperneck 11.91459965992524 -3.7533074944228577 1.3335076956211964
head 6.421817083364509 -1.8169962351619113 0.45175611021985995
lclavicle -6.477657177669091e-16 -4.860687422795237e-15
lhumerus -52.46239824862724 -9.19195767526423 98.97849293427838
lradius 96.50511717804943
lwrist 29.885199623273632
lhand -32.38599736244159 0.6993292857259137
lfingers 7.125019999999998
lthumb -5.621377361411726 30.604798285923614
rclavicle -6.477657177669091e-16 -4.860687422795237e-15
rhumerus -41.214410516821104 9.34673438197419 -94.43091150500544
rradius 105.3770060689571
rwrist -14.601298420252162
rhand -21.310287039354016 39.558394847386005
rfingers 7.125019999999998
rthumb 5.074792962897902 9.63914501618563
13
root -0.6565822040054444 16.953712333267426 -23.676787632564334 4.64454457933002 0.5501929414096981 -4.903228052958559
lfemur -37.66728889318371 3.0037307541833975 -11.405115089596993
ltibia 105.115982099781
lfoot 14.456894461157345 -13.14559620979349
ltoes 3.8242484139258597
rfemur -15.682201076014419 5.28541381710218 35.53529003468792
rtibia 49.61940388740807
rfoot -27.335081052899092 -18.871478645898833
rtoes -0.9820098286252943
lowerback 16.772992813927406 0.06290031467830276 2.9558155639143857
upperback -0.20837132788978008 0.9985778876185856 3.374484973577835
thorax -9.69002599610416 0.42711233978006474 1.7383842886729521
lowerneck -18.093806809044175 -4.080069736541244 -2.0594838198381216
upperneck 12.766496201368785 -5.296980029912356 1.789075261596364
head 6.96451968855519 -2.481849081860817 0.32319414960567705
lclavicle -6.47765744527517e-16 -4.860687304353335e-15
lhumerus -54.30799688185147 -12.433600887000528 99.8390898196554
lradius 98.17991517987247
lwrist 30.009299498884893
lhand -31.88969909256583 2.1662833157914183
lfingers 7.125019999999998
lthumb -5.1422490912129355 32.08389327733015
rclavicle -6.47765744527517e-16 -4.860687304353335e-15
rhumerus -39.5866124770009 8.432186408002314 -94.8900103872683
rradius 108.9280022812438
rwrist -16.785093442249085
rhand -21.830884568663272 38.021897859243985
rfingers 7.125019999999998
rthumb 4.572075435083506 8.091228055132936
14
root -0.66565290378189 17.162909052501195 -22.63078805073107 4.388985969920484 2.4927268695102676 -4.743748663551194
lfemur -41.13498703766548 0.6459607076604623 -12.336613697040239
ltibia 100.65598373306864
lfoot 9.01278728494939 -10.07640004799851
ltoes 0.301421701064454
rfemur -10.281703708431603 4.789914756527792 36.03568928133215
rtibia 46.09530504202867
rfoot -24.162482983410268 -19.560777408733834
rtoes -8.561253089905225
lowerback 16.99649189605663 0.23522722929738596 3.331684470197673
upperback -0.7313836605003762 1.323178148677197 3.179896486097486
thorax -10.388189982660831 0.5497977212228269 1.2394367158644657
lowerneck -16.775212975617286 -4.705385296246663 -2.138152318933724
upperneck 12.680896548888954 -6.19445569012115 2.0530238513611523
head 6.744622684848919 -2.9060545177392627 0.34892074150326274
lclavicle -6.477657759421234e-16 -4.8606873550201035e-15
lhumerus -57.377094609001695 -13.69839823841233 100.80698631669979
lradius 99.69961336674282
lwrist 29.63879987024691
lhand -31.510800413428363 1.17102668764912
lfingers 7.125019999999998
lthumb -4.776380412111999 31.097196618537083
rclavicle -6.477657759421234e-16 -4.8606873550201035e-15
rhumerus -39.988111993518785 8.840505503439623 -95.42680908036068
rradius 113.037997897267
rwrist -18.903388613554178
rhand -23.1159784697684 39.41709512436324
rfingers 7.125019999999998
rthumb 3.3310715378982936 9.463405361206433
15
root -0.6536633006158021 17.39240545338145 -21.564288477093264 4.068647713001361 3.3148951460981326 -4.787048497770776
lfemur -42.61938624338369 -0.6399580453359563 -13.144612489111221
ltibia 94.37468603333079
lfoot 3.889499942336128 -7.780442919223971
ltoes -11.690497109313515
rfemur -4.990506287571661 4.882914580207746 36.53728852616975
rtibia 42.81290611745975
rfoot -19.36748590114359 -18.978578453674274
rtoes -15.747388596965328
lowerback 17.20819102664614 0.680108136461959 3.9060927987638703
upperback -0.9391444091938725 2.0355043326190096 2.9913479516690997
thorax -10.714187174773745 0.843341848569326 0.5248471920726355
lowerneck -16.942812191818057 -5.1855018869934275 -2.0876132831603447
upperneck 13.29409405941036 -6.8459325398702555 1.9013746615985812
head 6.977409512919782 -3.222241115816641 0.20778698031627935
lclavicle -6.47765728471171e-16 -4.8606873951588215e-15
lhumerus -60.028692645335376 -13.796598032774 101.10898522372263
lradius 101.26101150386157
lwrist 28.453201058605355
lhand -31.827699308700634 -1.1885753181893934
lfingers 7.125019999999998
lthumb -5.08236930739747 28.73050463276069
rclavicle -6.47765728471171e-16 -4.8606873951588215e-15
rhumerus -40.64491120260705 9.561493906210377 -95.85960802665423
rradius 116.87499380448865
rwrist -19.842386473090347
rhand -21.437386436156174 40.809892394187024
rfingers 7.125019999999998
rthumb 4.9520635664373245 10.887792564778875
16
root -0.6005620581696991 17.678000974476888 -20.367688955466416 4.730284112788987 3.008975787359965 -4.628479104879349
lfemur -43.310685873478626 -1.050349009080029 -14.280210791432822
ltibia 86.08488906912163
lfoot 1.3799112440292105 -5.574845677449243
ltoes -18.936590348006508
rfemur -0.48971148143803944 5.218813943370081 36.12388914854642
rtibia 39.53660719089227
rfoot -12.576990033128666 -15.406484864927588
rtoes -18.299087001583793
lowerback 13.867304747068864 1.5460501699293983 4.38777139715835
upperback -0.3082152459757843 2.9957891882020697 2.718260074357792
thorax -8.054440083773219 1.330428422559228 -0.18979533146136984
lowerneck -17.902507703678967 -5.661068510048991 -2.029294395817576
upperneck 13.571692932405693 -7.474159502045428 1.7878352682214476
head 7.2341960139735955 -3.5169479449996817 0.0603246195202396
lclavicle -6.477657186977837e-16 -4.860687317513564e-15
lhumerus -60.95939195609704 -13.043699609404339 100.80298633117631
lradius 101.88401076057026
lwrist 26.658502857480947
lhand -32.26469778529887 -4.12849535795224
lfingers 7.125019999999998
lthumb -5.504307784069098 25.780014623873534
rclavicle -6.477657186977837e-16 -4.860687317513564e-15
rhumerus -39.95701203096908 10.68690141305823 -95.79960817273184
rradius 119.6669908263711
rwrist -18.891588640452436
rhand -21.21268750254921 42.440289198265596
rfingers 7.125019999999998
rthumb 5.1689824997073375 12.5233893536942
